<svg width="22" height="23" viewBox="0 0 22 23" fill="none" xmlns="http://www.w3.org/2000/svg">
<path d="M14.889 0.433105H7.02235C3.40246 0.433105 0.466797 3.46076 0.466797 7.19408V15.3073C0.466797 19.0406 3.40246 22.0682 7.02235 22.0682H14.889C18.5089 22.0682 21.4446 19.0406 21.4446 15.3073V7.19408C21.4446 3.46076 18.5089 0.433105 14.889 0.433105ZM19.4779 15.3073C19.4779 17.917 17.4195 20.0399 14.889 20.0399H7.02235C4.49191 20.0399 2.43346 17.917 2.43346 15.3073V7.19408C2.43346 4.58435 4.49191 2.4614 7.02235 2.4614H14.889C17.4195 2.4614 19.4779 4.58435 19.4779 7.19408V15.3073Z" fill="white"/>
<path d="M10.956 5.84208C8.05968 5.84208 5.71156 8.26378 5.71156 11.2509C5.71156 14.2379 8.05968 16.6596 10.956 16.6596C13.8523 16.6596 16.2004 14.2379 16.2004 11.2509C16.2004 8.26378 13.8523 5.84208 10.956 5.84208ZM10.956 14.6314C9.14913 14.6314 7.67823 13.1144 7.67823 11.2509C7.67823 9.3861 9.14913 7.87037 10.956 7.87037C12.7629 7.87037 14.2338 9.3861 14.2338 11.2509C14.2338 13.1144 12.7629 14.6314 10.956 14.6314Z" fill="white"/>
<path d="M16.7246 5.84256C17.0143 5.84256 17.2491 5.6004 17.2491 5.30168C17.2491 5.00296 17.0143 4.7608 16.7246 4.7608C16.4349 4.7608 16.2001 5.00296 16.2001 5.30168C16.2001 5.6004 16.4349 5.84256 16.7246 5.84256Z" fill="white"/>
</svg>
