<svg width="19" height="19" viewBox="0 0 19 19" fill="none" xmlns="http://www.w3.org/2000/svg">
<path d="M18.1345 18.3953V18.3944H18.1391V11.9213C18.1391 8.75492 17.4575 6.31519 13.7551 6.31519C11.9754 6.31519 10.7813 7.29191 10.2936 8.21761H10.2422V6.61073H6.73193V18.3944H10.3869V12.5598C10.3869 11.0237 10.6783 9.53814 12.5808 9.53814C14.4556 9.53814 14.4832 11.2912 14.4832 12.6586V18.3953H18.1345Z" fill="white"/>
<path d="M4.43988 6.61035H0.780273V18.394H4.43988V6.61035Z" fill="white"/>
<path d="M2.60814 0.744141C1.43837 0.744141 0.48877 1.69374 0.48877 2.86351C0.48877 4.03328 1.43837 5.00265 2.60814 5.00265C3.77791 5.00265 4.72751 4.03328 4.72751 2.86351C4.72705 1.69374 3.77745 0.744141 2.60814 0.744141Z" fill="white"/>
</svg>
