<svg width="26" height="292" viewBox="0 0 26 292" fill="none" xmlns="http://www.w3.org/2000/svg">
<path opacity="0.5" d="M8.27273 290.278L8.27273 291.701L17 288.561L17 287.039L8.27273 283.899L8.27273 285.322L15.3807 287.751L15.3807 287.849L8.27273 290.278ZM12.6364 270.211C9.84517 270.211 8.15341 271.881 8.15341 274.14C8.15341 276.407 9.84517 278.073 12.6364 278.073C15.4233 278.073 17.1193 276.407 17.1193 274.14C17.1193 271.881 15.4276 270.211 12.6364 270.211ZM12.6364 271.515C14.7628 271.515 15.9176 272.64 15.9176 274.14C15.9176 275.644 14.7628 276.765 12.6364 276.765C10.5099 276.765 9.35511 275.644 9.35511 274.14C9.35511 272.64 10.5099 271.515 12.6364 271.515ZM17 263.289L17 258.018L15.8665 258.018L15.8665 261.973L8.27273 261.973L8.27273 263.289L17 263.289ZM9.40625 252.803L9.40625 250.084L17 250.084L17 248.772L9.40625 248.772L9.40625 246.049L8.27273 246.049L8.27273 252.803L9.40625 252.803ZM17 239.582L14.6903 238.781L14.6903 235.372L17 234.575L17 233.177L8.27273 236.318L8.27273 237.839L17 240.98L17 239.582ZM13.5824 238.397L9.85795 237.11L9.85795 237.042L13.5824 235.755L13.5824 238.397ZM17 226.637L17 225.32L13.6974 225.32L13.6974 223.53C13.6974 223.5 13.6974 223.475 13.6974 223.445L17 221.672L17 220.172L13.4673 222.107C13.071 221.037 12.1804 220.505 11.0085 220.505C9.40199 220.505 8.27273 221.502 8.27273 223.526L8.27273 226.637L17 226.637ZM12.5639 225.32L9.40199 225.32L9.40199 223.667C9.40199 222.367 10.0199 221.83 11.0085 221.83C11.9929 221.83 12.5639 222.367 12.5639 223.65L12.5639 225.32ZM17 204.429L14.6903 203.628L14.6903 200.219L17 199.422L17 198.025L8.27273 201.165L8.27273 202.687L17 205.827L17 204.429ZM13.5824 203.245L9.85796 201.958L9.85796 201.89L13.5824 200.603L13.5824 203.245ZM12.6364 184.313C9.84517 184.313 8.15341 185.984 8.15341 188.242C8.15341 190.51 9.84517 192.176 12.6364 192.176C15.4233 192.176 17.1193 190.51 17.1193 188.242C17.1193 185.984 15.4276 184.313 12.6364 184.313ZM12.6364 185.617C14.7628 185.617 15.9176 186.742 15.9176 188.242C15.9176 189.747 14.7628 190.867 12.6364 190.867C10.5099 190.867 9.35511 189.747 9.35511 188.242C9.35511 186.742 10.5099 185.617 12.6364 185.617ZM9.40625 169.366L9.40625 166.648L17 166.648L17 165.335L9.40625 165.335L9.40625 162.612L8.27273 162.612L8.27273 169.366L9.40625 169.366ZM12.6364 148.622C9.84517 148.622 8.15341 150.292 8.15341 152.551C8.15341 154.818 9.84517 156.484 12.6364 156.484C15.4233 156.484 17.1193 154.818 17.1193 152.551C17.1193 150.292 15.4276 148.622 12.6364 148.622ZM12.6364 149.926C14.7628 149.926 15.9176 151.051 15.9176 152.551C15.9176 154.055 14.7628 155.176 12.6364 155.176C10.5099 155.176 9.35512 154.055 9.35512 152.551C9.35512 151.051 10.5099 149.926 12.6364 149.926ZM17 141.7L17 140.383L13.9318 140.383L13.9318 138.594C13.9318 136.57 12.7088 135.568 11.098 135.568C9.49148 135.568 8.27273 136.561 8.27273 138.589L8.27273 141.7L17 141.7ZM12.8153 140.383L9.40199 140.383L9.40199 138.73C9.40199 137.426 10.1094 136.893 11.098 136.893C12.0866 136.893 12.8153 137.426 12.8153 138.713L12.8153 140.383ZM12.6364 121.163C9.84517 121.163 8.15341 122.834 8.15341 125.092C8.15341 127.36 9.84517 129.026 12.6364 129.026C15.4233 129.026 17.1193 127.36 17.1193 125.092C17.1193 122.834 15.4276 121.163 12.6364 121.163ZM12.6364 122.467C14.7628 122.467 15.9176 123.592 15.9176 125.092C15.9176 126.597 14.7628 127.717 12.6364 127.717C10.5099 127.717 9.35512 126.597 9.35512 125.092C9.35512 123.592 10.5099 122.467 12.6364 122.467Z" fill="white"/>
<path opacity="0.5" d="M13.999 1L13.999 108" stroke="white" stroke-width="2" stroke-linecap="square" stroke-linejoin="round"/>
</svg>
