<svg width="24" height="20" viewBox="0 0 24 20" fill="none" xmlns="http://www.w3.org/2000/svg">
<path d="M23.9999 2.91724C23.1223 3.28568 22.187 3.53013 21.2121 3.64882C22.2151 3.07565 22.9808 2.17464 23.3407 1.08875C22.4055 1.62265 21.373 1.99947 20.2727 2.20994C19.3844 1.30451 18.1191 0.744141 16.7382 0.744141C14.0596 0.744141 11.9028 2.82547 11.9028 5.37671C11.9028 5.74382 11.9351 6.09681 12.0148 6.43304C7.99307 6.24507 4.43365 4.39981 2.04272 1.58867C1.6251 2.28186 1.38034 3.07565 1.38034 3.92989C1.38034 5.53379 2.24323 6.95591 3.52927 7.77882C2.75211 7.7647 1.98925 7.54849 1.34346 7.2083C1.34346 7.22242 1.34346 7.24095 1.34346 7.25904C1.34346 9.5098 3.02038 11.3793 5.22002 11.81C4.82637 11.9132 4.39677 11.9627 3.9515 11.9627C3.64174 11.9627 3.32922 11.9459 3.03559 11.8837C3.66248 13.7179 5.44128 15.0663 7.55656 15.11C5.91052 16.3428 3.82013 17.0854 1.5578 17.0854C1.16093 17.0854 0.780644 17.0687 0.399902 17.0219C2.54284 18.3443 5.08266 19.0997 7.8216 19.0997C16.7248 19.0997 21.5924 12.0399 21.5924 5.92032C21.5924 5.71558 21.585 5.51791 21.5749 5.32156C22.535 4.66941 23.3421 3.85488 23.9999 2.91724Z" fill="white"/>
</svg>
