<svg width="27" height="20" viewBox="0 0 27 20" fill="none" xmlns="http://www.w3.org/2000/svg">
<path fill-rule="evenodd" clip-rule="evenodd" d="M23.7685 1.31488C24.9102 1.62264 25.8113 2.52301 26.1187 3.66501C26.69 5.75164 26.6682 10.0999 26.6682 10.0999C26.6682 10.0999 26.6682 14.4267 26.1192 16.5123C25.8113 17.6543 24.9108 18.5552 23.7685 18.8625C21.6814 19.4118 13.3341 19.4118 13.3341 19.4118C13.3341 19.4118 5.00861 19.4118 2.89964 18.8411C1.75687 18.5333 0.856819 17.633 0.548989 16.491C0 14.4262 0 10.078 0 10.078C0 10.078 0 5.75164 0.54951 3.66553C0.856819 2.52353 1.77927 1.60077 2.89964 1.29353C4.98622 0.744141 13.3341 0.744141 13.3341 0.744141C13.3341 0.744141 21.6814 0.744141 23.7685 1.31488ZM17.6177 10.0776L10.6761 14.0748V6.08032L17.6177 10.0776Z" fill="white"/>
</svg>
