<svg width="65" height="64" viewBox="0 0 65 64" fill="none" xmlns="http://www.w3.org/2000/svg">
<rect width="65" height="64" rx="32" fill="#3EB959"/>
<path fill-rule="evenodd" clip-rule="evenodd" d="M42.92 22.0692C40.2882 19.4465 36.7878 18.0018 33.0585 18C25.3738 18 19.1201 24.2238 19.117 31.8734C19.1162 34.3188 19.7577 36.7059 20.9779 38.8102L19 46L26.3907 44.0705C28.4272 45.1758 30.7198 45.7587 33.0532 45.7591H33.059C40.7428 45.7591 46.9974 39.5349 47 31.8848C47.0013 28.1774 45.5527 24.6915 42.92 22.0692ZM33.0585 43.4162H33.0537C30.9745 43.4154 28.9354 42.8592 27.156 41.8086L26.7331 41.5586L22.3473 42.7037L23.5178 38.448L23.2423 38.0118C22.0824 36.1756 21.4699 34.0534 21.4708 31.8748C21.4734 25.5161 26.6715 20.3433 33.0629 20.3433C36.1581 20.3442 39.0676 21.5454 41.2554 23.7254C43.4428 25.9054 44.6472 28.8027 44.6463 31.884C44.6436 38.2426 39.4456 43.4162 33.0585 43.4162ZM39.4143 34.7791C39.0663 34.6056 37.3532 33.767 37.0342 33.651C36.7152 33.5354 36.4824 33.4776 36.2505 33.8244C36.0182 34.1712 35.3506 34.9525 35.1473 35.1837C34.9441 35.4149 34.7412 35.4443 34.3927 35.2704C34.0442 35.097 32.9217 34.7309 31.5915 33.5498C30.5561 32.6306 29.8569 31.4955 29.6536 31.1482C29.4507 30.801 29.6518 30.6315 29.8063 30.4406C30.1834 29.9746 30.5609 29.4859 30.6771 29.2547C30.7932 29.0234 30.7352 28.8207 30.648 28.6473C30.5614 28.4738 29.8648 26.7672 29.5744 26.0731C29.2914 25.3974 29.0045 25.4885 28.7907 25.478C28.5878 25.4679 28.3555 25.4657 28.1231 25.4657C27.8908 25.4657 27.5133 25.5524 27.1942 25.8997C26.8752 26.247 25.9754 27.0852 25.9754 28.7918C25.9754 30.4984 27.2237 32.1467 27.398 32.3779C27.5722 32.6092 29.8542 36.1108 33.3485 37.6124C34.1797 37.9698 34.8283 38.1831 35.3344 38.3429C36.1691 38.607 36.9282 38.5697 37.5284 38.4804C38.1976 38.3806 39.589 37.6418 39.8799 36.8321C40.1699 36.0223 40.1699 35.3282 40.0827 35.1837C39.9952 35.0392 39.7628 34.9525 39.4143 34.7791Z" fill="white"/>
</svg>
